# xmcd
#
# Track frame offsets: 
#        150
#        7301
#        32301
#        48889
#        71023
#        92226
#        112224
#        133706
#        150819
#        169575
#        194745
#        206939
#
# Disc length: 2964 seconds
#
# Revision: 3
# Processed by: cddbd v1.5.2PL0 Copyright (c) Steve Scherf et al.
# Submitted via: ExactAudioCopy v1.0b3
#
DISCID=a70b920c
DTITLE=Havok - Burn
DYEAR=2009
DGENRE=Metal
TTITLE0=Wreckquiem
TTITLE1=The Root of Evil
TTITLE2=Path to Nowhere
TTITLE3=Morbid Symmetry
TTITLE4=Identity Theft
TTITLE5=The Disease
TTITLE6=Scabs of Trust
TTITLE7=Ivory Tower
TTITLE8=To Hell
TTITLE9=Category of the Dead
TTITLE10=Melting the Mountain
TTITLE11=Afterburner
EXTD=
EXTT0=
EXTT1=
EXTT2=
EXTT3=
EXTT4=
EXTT5=
EXTT6=
EXTT7=
EXTT8=
EXTT9=
EXTT10=
EXTT11=
PLAYORDER=
